<svg xmlns="http://www.w3.org/2000/svg" version="1.1" xmlns:xlink="http://www.w3.org/1999/xlink" xmlns:svgjs="http://svgjs.dev/svgjs" width="1440" height="560" preserveAspectRatio="none" viewBox="0 0 1440 560"><g mask="url(&quot;#SvgjsMask1000&quot;)" fill="none"><rect width="1440" height="560" x="0" y="0" fill="#0e2a47" data-darkreader-inline-fill="" style="--darkreader-inline-fill: #0b2239;"></rect><path d="M33.14 579.8C236.61 565.56 384.1 172.62 739.96 172.33 1095.81 172.04 1260.12 409.86 1446.77 413.13" stroke="rgba(51,121,194,0.58)" stroke-width="2" data-darkreader-inline-stroke="" style="--darkreader-inline-stroke: rgba(98, 162, 214, 0.58);"></path><path d="M96.91 584.84C270.28 528.59 300.99 39.91 564.45 25.41 827.9 10.91 798.21 95.41 1031.98 95.41 1265.75 95.41 1381.33 25.6 1499.52 25.41" stroke="rgba(51,121,194,0.58)" stroke-width="2" data-darkreader-inline-stroke="" style="--darkreader-inline-stroke: rgba(98, 162, 214, 0.58);"></path><path d="M389.34 663.34C564.81 655.63 704.44 359.85 1022.86 359.68 1341.29 359.51 1492.18 531.72 1656.39 533.28" stroke="rgba(51,121,194,0.58)" stroke-width="2" data-darkreader-inline-stroke="" style="--darkreader-inline-stroke: rgba(98, 162, 214, 0.58);"></path><path d="M866.49 669.21C973.18 631.37 932.88 315.21 1147.89 314.45 1362.9 313.69 1562.17 502.29 1710.68 504.85" stroke="rgba(51,121,194,0.58)" stroke-width="2" data-darkreader-inline-stroke="" style="--darkreader-inline-stroke: rgba(98, 162, 214, 0.58);"></path><path d="M597.78 602.36C742.11 529.98 674.01 60.46 944.57 57.53 1215.14 54.6 1454.18 300.31 1638.16 303.93" stroke="rgba(51,121,194,0.58)" stroke-width="2" data-darkreader-inline-stroke="" style="--darkreader-inline-stroke: rgba(98, 162, 214, 0.58);"></path></g><defs><mask id="SvgjsMask1000"><rect width="1440" height="560" fill="#ffffff" data-darkreader-inline-fill="" style="--darkreader-inline-fill: #181a1b;"></rect></mask></defs></svg>